<?xml version="1.0" encoding="UTF-8" standalone="no"?>
<!DOCTYPE svg PUBLIC "-//W3C//DTD SVG 1.1//EN" "http://www.w3.org/Graphics/SVG/1.1/DTD/svg11.dtd">
<svg width="100%" height="100%" viewBox="0 0 2000 2000" version="1.1" xmlns="http://www.w3.org/2000/svg" xmlns:xlink="http://www.w3.org/1999/xlink" xml:space="preserve" xmlns:serif="http://www.serif.com/" style="fill-rule:evenodd;clip-rule:evenodd;stroke-linejoin:round;stroke-miterlimit:2;">
    <g id="картинка" transform="matrix(1,0,0,1,-2.76368,0)">
        <g transform="matrix(1.2134,0,0,1.2134,-248.691,-201.063)">
            <path d="M1123,337L1035,296L958,334L945,409L913.953,466.343L840,461L773,562L777,635L771,686L779,734L784,813L747,785L708,840L839.311,916.224L852.397,986.597L928,1176L939,1218C939,1218 942.46,1277.19 942,1282C941.54,1286.81 917,1369 917,1369L844,1355L790,1404L683,1488L1736,1775L1711,1551L1100,1403L1106,1303L1139,1132L1148,1065C1125.62,964.541 1100.57,823.906 1091.06,777.358C1091.06,777.358 1123.83,810.982 1142.57,830.998C1143.3,831.783 1203.34,808.004 1220.3,798.659C1245.59,784.722 1284.93,764.415 1286.28,764.798L1283.12,743.964L1339.09,716.455L1340.63,641.783L1334.4,587.12L1170.23,653.241C1170.23,653.241 1170.17,662.577 1167.85,695.888C1166.16,720.181 1165.82,726.529 1165.82,726.529L1136.11,630.383L1087.56,560.646L994.42,508.918L1005.24,484.095L1051.58,514.01L1077.97,489.106L1085.88,460.036L1110.95,459.426L1111.84,435.627L1125.05,423.637L1126.76,385.719L1142.24,365.12C1142.24,365.12 1117.99,338.907 1123,337Z" style="fill:white;"/>
        </g>
        <g transform="matrix(1.2134,0,0,1.2134,-248.691,-201.063)">
            <path d="M1143.56,358.921C1143.46,358.554 1132.74,345.252 1121.96,336.999C1121.55,336.688 1074.24,342.136 1074.24,342.136L1041.48,338.136L1014.3,384.083L995.504,367.853L971.756,390.712L977.471,417.114L985.726,430.944L966.168,506.264L999.305,538.176L1003.22,510.355L1052.45,515.643L1078.05,490.491L1086.05,463.06L1111.39,460.959L1112.27,437.102C1112.27,437.102 1126.18,423.972 1126.31,423.972C1126.44,423.972 1126.77,384.503 1126.77,384.503C1126.77,384.503 1149.53,380.637 1143.56,358.921Z" style="fill:rgb(204,210,241);"/>
        </g>
        <g transform="matrix(1.2134,0,0,1.2134,-248.691,-201.063)">
            <path d="M1007.37,391.888L997.602,379.058L984.486,394.903L992.327,414.469L996.747,395.801L1007.37,391.888Z" style="fill:rgb(152,164,227);"/>
        </g>
        <g transform="matrix(1.2134,0,0,1.2134,-248.691,-201.063)">
            <path d="M1098.98,430.314L1111.74,422.167L1102.05,398.303L1071.75,399.907L1078.27,421.035L1098.98,430.314Z" style="fill:rgb(152,164,227);"/>
        </g>
        <g transform="matrix(1.2134,0,0,1.2134,-248.691,-201.063)">
            <path d="M1112.31,462.646L1107.32,454.435L1084.8,450.521L1084.8,463.608L1112.31,462.646Z" style="fill:rgb(152,164,227);"/>
        </g>
        <g transform="matrix(1.2134,0,0,1.2134,-245.927,-202.431)">
            <path d="M1000.76,536.209C1000.76,536.209 970.599,504.237 935.975,490.287C906.397,478.37 871.554,484.057 871.554,485.005C871.554,487.062 803.103,594.614 803.103,594.614L830.788,678.278L823.676,739.769L812.881,819.432L846.663,857.035L773.766,810.289L743.795,823.318L739.985,866.293C739.985,866.293 824.438,933.156 824.311,931.327C824.184,929.498 869.522,947.442 869.522,947.442L903.177,904.239C903.177,904.239 955.5,911.211 957.151,913.04C958.802,914.868 1051.64,989.96 1051.64,989.96L1111.58,967.101L1117.8,996.704C1117.8,996.704 1010.36,1060.82 1010.11,1060.82C1009.86,1060.82 912.506,1087.83 912.506,1087.83L915.927,1110.33L1009.65,1080.7L967.184,1277.53C967.184,1277.53 950.039,1376.05 950.039,1376.62C950.039,1377.19 845.139,1354.65 845.139,1354.65C845.139,1354.65 840.948,1474.55 840.059,1474.55C839.17,1474.55 1728.92,1685.98 1728.92,1685.98L1711.77,1551.68L1102.56,1403.67L1127.96,1196.41L1149.05,1067.37L1104.21,847.041L1114.21,805.474L1142.39,835.1L1241.92,832.006L1332.75,794.435L1336.09,761.643L1380.67,713.87C1376.15,645.063 1363.86,651.411 1333.52,646.181C1321.73,658.324 1310.35,644.076 1309.46,677.86C1309.03,694.265 1343.28,707.734 1331.48,719.971L1255.97,743.048L1268.03,707.283L1148.42,740.541L1129.44,731.986L1111.1,673.872L1079.77,632.191L1073.74,771.478L1080.98,804.176L957.953,792.483L1028.27,712.844L965.787,600.721L1000.76,536.209Z" style="fill:rgb(204,210,241);"/>
        </g>
        <g transform="matrix(1,0,0,1,2.76368,0)">
            <path d="M1166.47,679.22L1340.58,620.645L1348.46,632.459L1166.47,679.22Z" style="fill:rgb(152,164,227);"/>
        </g>
        <g transform="matrix(1,0,0,1,2.76368,0)">
            <path d="M1103.39,778.351L1107.98,746.788C1107.98,746.788 1111.4,710.883 1111.36,710.704C1098.09,663.571 1103.3,631.069 1093.35,590.9C1093.09,589.827 1121.14,679.556 1121.14,679.556L1161.81,676.227L1135.24,727.144L1229.24,708.599L1332.25,681.587L1370.86,758.335L1310.75,724.881L1264.81,772.177L1215.7,756.371L1165.42,793.321L1137.63,812.789L1103.39,778.351Z" style="fill:rgb(152,164,227);"/>
        </g>
        <g transform="matrix(1.2134,0,0,1.2134,-248.691,-201.063)">
            <path d="M807.77,775.94L844.835,734.664L888.033,790.899L847.768,770.421L807.77,775.94Z" style="fill:rgb(152,164,227);"/>
        </g>
        <g transform="matrix(1.2134,0,0,1.2134,-248.691,-201.063)">
            <path d="M909.543,572.356C913.03,573.14 900.832,721.784 900.832,721.784L942.43,692.187L985.539,677.308L904.299,731.144L907.676,771.221L908.743,828.097L986.962,814.498C986.962,814.498 1040.65,808.418 1040.29,808.418C1039.94,808.418 1044.91,829.536 1044.91,829.536C1044.91,829.536 1052.37,832.006 1061.04,834.843C1072.46,838.578 1091.49,840.138 1092.89,840.352C1104.9,842.182 1103.5,857.585 1103.5,857.585L1034.13,845.797L994.339,837.056L948.652,836.416L899.677,852.175C899.677,852.175 900.566,782.98 899.766,784.02C898.966,785.06 889.277,744.823 889.277,744.823L891.944,706.826L872.834,590.354L904.561,674.006L892.299,570.516C892.299,570.516 908.476,572.116 909.543,572.356Z" style="fill:rgb(152,164,227);"/>
        </g>
        <g transform="matrix(1.2134,0,0,1.2134,-248.691,-201.063)">
            <path d="M871.472,944.364L898.641,895.784L933.351,905.802L906.182,907.849L871.472,944.364Z" style="fill:rgb(152,164,227);"/>
        </g>
        <g transform="matrix(1.2134,0,0,1.2134,-248.691,-201.063)">
            <path d="M956.121,995.951C956.121,995.951 1006.55,1032.41 1006.55,1032.97C1006.55,1033.53 937.064,1063.02 937.064,1063.02L970.608,1033.81L956.121,995.951Z" style="fill:rgb(204,210,241);"/>
        </g>
        <g transform="matrix(1.2134,0,0,1.2134,-248.691,-201.063)">
            <path d="M1049.69,937.895L1053.88,987.552L1068.36,983.136L1049.69,937.895Z" style="fill:rgb(152,164,227);"/>
        </g>
        <g transform="matrix(1.2134,0,0,1.2134,-248.691,-201.063)">
            <path d="M1078.77,1020.51L1112.64,1115.95L1115.52,1289.37L1102.23,1137.92L1078.77,1020.51Z" style="fill:rgb(152,164,227);"/>
        </g>
        <g transform="matrix(1.2134,0,0,1.2134,-248.691,-201.063)">
            <path d="M890.505,959.278L937.916,953.771L930.247,987.515L941.867,1015.19L906.387,1007.25L879.97,988.352L890.505,959.278Z" style="fill:rgb(204,210,241);"/>
        </g>
        <g transform="matrix(1.2134,0,0,1.2134,-248.691,-201.063)">
            <path d="M1081.02,482.725L1070.97,473.038L1053.72,469.831L1079.9,490.854L1081.02,482.725Z" style="fill:rgb(152,164,227);"/>
        </g>
        <g transform="matrix(1.2134,0,0,1.2134,-248.691,-201.063)">
            <path d="M1053.34,516.276L1019.26,483.559L990.254,432.559L995.101,488.563L1002.3,512.747L1053.34,516.276Z" style="fill:rgb(152,164,227);"/>
        </g>
        <g transform="matrix(1.2134,0,0,1.2134,-248.691,-201.063)">
            <path d="M880.688,972.586L892.657,973.663L895.17,1006.52L880.688,972.586Z" style="fill:rgb(172,182,232);"/>
        </g>
        <g transform="matrix(1.2134,0,0,1.2134,-248.691,-201.063)">
            <path d="M919.467,975.063L922.34,1004.9L936.223,1035.49L908.216,1007.16L906.541,973.448" style="fill:rgb(152,164,227);"/>
        </g>
        <g transform="matrix(1.2134,0,0,1.2134,-248.691,-201.063)">
            <path d="M1120.22,370.526C1129.42,385.661 1126.13,387.971 1142.02,378.163C1146.64,375.308 1145.77,360.022 1145.74,359.556C1145.66,358.658 1123.14,337.745 1123.14,337.745L1072.6,343.647L1042.38,335.692C1042.38,335.692 1027.77,371.488 1028.12,370.654C1028.48,369.82 1056.06,357.182 1056.06,357.182L1104.18,355.258C1104.18,355.258 1115.77,363.211 1120.22,370.526Z" style="fill:rgb(152,164,227);"/>
        </g>
        <g transform="matrix(1.06007,0,0,1.17478,-63.0028,-79.8227)">
            <path d="M1.176,1994.62L565.287,1361.75L2000.54,1677.76L1997.73,1994.41L1.176,1994.62Z" style="fill:rgb(216,100,68);"/>
        </g>
    </g>
</svg>
